inDegrees=no
num_controls=7
num_derivatives=13
num_iterations=122
num_multipliers=7
num_parameters=0
num_slacks=7
num_states=26
objective=0.497132
objective_accelerations=0.042195
objective_balance=0.003554
objective_effort=0.039689
objective_height=0.405865
objective_ligament=0.005829
solver_duration=1346.091514
status=Solve_Succeeded
success=true
DataType=double
version=3
OpenSimVersion=4.5
endheader
time	/jointset/ground_pelvis/pelvis_tilt/value	/jointset/ground_pelvis/pelvis_tx/value	/jointset/ground_pelvis/pelvis_ty/value	/jointset/hip_r/hip_flexion_r/value	/jointset/hip_r/hip_adduction_r/value	/jointset/hip_r/hip_rotation_r/value	/jointset/back/lumbar_extension/value	/jointset/patellofemoral_r/patellar_flexion_r/value	/jointset/knee_r/knee_flexion_r/value	/jointset/knee_r/knee_adduction_r/value	/jointset/knee_r/knee_rotation_r/value	/jointset/ankle_r/ankle_angle_r/value	/jointset/subtalar_r/subtalar_angle_r/value	/jointset/ground_pelvis/pelvis_tilt/speed	/jointset/ground_pelvis/pelvis_tx/speed	/jointset/ground_pelvis/pelvis_ty/speed	/jointset/hip_r/hip_flexion_r/speed	/jointset/hip_r/hip_adduction_r/speed	/jointset/hip_r/hip_rotation_r/speed	/jointset/back/lumbar_extension/speed	/jointset/patellofemoral_r/patellar_flexion_r/speed	/jointset/knee_r/knee_flexion_r/speed	/jointset/knee_r/knee_adduction_r/speed	/jointset/knee_r/knee_rotation_r/speed	/jointset/ankle_r/ankle_angle_r/speed	/jointset/subtalar_r/subtalar_angle_r/speed	/forceset/tau_hip_flexion_r	/forceset/tau_hip_adduction_r	/forceset/tau_hip_rotation_r	/forceset/tau_knee_flexion_r	/forceset/tau_ankle_angle_r	/forceset/tau_subtalar_angle_r	/forceset/tau_lumbar_extension	lambda_cid13_p0	lambda_cid14_p0	lambda_cid14_p1	lambda_cid14_p2	lambda_cid14_p3	lambda_cid14_p4	lambda_cid14_p5	/jointset/ground_pelvis/pelvis_tilt/accel	/jointset/ground_pelvis/pelvis_tx/accel	/jointset/ground_pelvis/pelvis_ty/accel	/jointset/hip_r/hip_flexion_r/accel	/jointset/hip_r/hip_adduction_r/accel	/jointset/hip_r/hip_rotation_r/accel	/jointset/back/lumbar_extension/accel	/jointset/patellofemoral_r/patellar_flexion_r/accel	/jointset/knee_r/knee_flexion_r/accel	/jointset/knee_r/knee_adduction_r/accel	/jointset/knee_r/knee_rotation_r/accel	/jointset/ankle_r/ankle_angle_r/accel	/jointset/subtalar_r/subtalar_angle_r/accel	gamma_cid13_p0	gamma_cid14_p0	gamma_cid14_p1	gamma_cid14_p2	gamma_cid14_p3	gamma_cid14_p4	gamma_cid14_p5
1.5	-0.1474643659717413	0.04450642016648446	0.8508096499477763	0.7773056164126357	-0.2406670701739703	-0.110469650560027	-0.2864924246755847	0.7243640537503316	0.7243640537502231	0.06597519797251312	0.1744584006513336	0.2624866072204893	0.04178338729348374	0.3319479219052822	0.1540578851909269	0.4102809813230666	-1.75281197533398	0.03793000906476689	-0.4055434141825551	0.6981758094217505	-1.956868659720877	-1.956868659720852	0.1808294583782445	0.0006273230243637557	-0.6242987838333177	-0.1139650268427647	-0.09092225887064491	-0.0185419323300676	0.01157884254410864	-0.3344613151990145	0.06434824861101719	-0.01228677332534509	0.1391570923477361	-29.93650558362172	-20.70354085768002	-5.03818656352028	-3.217815571535014	2.350306908555724	-655.4890896339035	57.16238055450581	0.1679505052234865	0.354631050389684	-0.5439895853015558	-0.8507616604497691	0.1101929891875617	-0.3352373249222784	1.344290908165403	-1.145791702421074	-1.145791702421075	0.5245701501524679	-0.02928753724943742	-0.554893309544366	0.05682121812485865	1.406808477398254e-07	8.373991430748214e-08	-1.43621433723071e-06	7.171226189513945e-07	1.032450527520365e-07	1.7818745649575e-07	-1.031578809077127e-06
1.51	-0.1441367945337214	0.04606454260046991	0.8548844224603978	0.759736858116449	-0.2402829620421132	-0.11454230164189	-0.2794445839041749	0.7047405611698072	0.7047405611697165	0.06781068972373461	0.1744645925703629	0.2562164915503877	0.04064577985258166	0.3335178007079647	0.1575443347551334	0.404588600422107	-1.760703324262057	0.038888943170004	-0.4089624441373299	0.7112947754685954	-1.967556529629715	-1.967556529629688	0.1862653076235446	0.00060714176382099	-0.6296320205503978	-0.1135384635471196	-0.08474895527605061	-0.02069852796938497	0.01103199254741092	-0.330868384467741	0.06784374794273755	-0.0131298266268697	0.1335162429867206	-31.07258137199709	-19.42007763976077	-5.051778020276423	-3.361651425657914	1.905759699131955	-651.7160155361665	57.31941332332268	0.1442293563064871	0.3423341128125792	-0.5945599745047004	-0.7228576204533836	0.08832279819946598	-0.3413749768889595	1.281064043985794	-0.9893162389994671	-0.9893162389991979	0.5523606466174494	0.01115318275730929	-0.5086548094245036	0.03811537776337177	1.488674064437881e-07	8.77142091720169e-08	-1.529026872370802e-06	7.471941843929432e-07	1.084642981141869e-07	1.941836518233092e-07	-1.09129940337611e-06
1.52	-0.1407949797499776	0.04765686597077231	0.8588997316376072	0.7420962791086829	-0.239889348733803	-0.1186483708525254	-0.2722684805540895	0.6850183835694141	0.6850183835693505	0.0697003936343909	0.1744704899974343	0.2498958203217879	0.03951294634313179	0.3347965910512996	0.1608980724543149	0.398388314240684	-1.767176117648807	0.03983104435554401	-0.4122270399374603	0.7238283251571281	-1.976605663693925	-1.976605663693896	0.1916718902647907	0.0005684246318385131	-0.634409895532863	-0.1130102405523126	-0.07857565168145694	-0.02285512360869094	0.01048514255071519	-0.3272754537364669	0.07133924727446296	-0.01397287992837784	0.1278753936257019	-32.1922214428735	-18.14067647059531	-5.063651886196966	-3.508535757327242	1.452411791086481	-648.0139978162484	57.53191588912187	0.109732813353775	0.3280886773848068	-0.6455706413942351	-0.5670505521843912	0.1068264052481286	-0.3043504939934594	1.22720763650281	-0.8180445334953814	-0.8180445334953589	0.5187168293416979	-0.03299471153736939	-0.4438209626211997	0.07715315795724817	1.56756338251796e-07	8.616542479535124e-08	-1.624374482186178e-06	7.615144832674797e-07	1.19640635370257e-07	1.937944907851128e-07	-1.145019733971329e-06
1.53	-0.1374419655600039	0.04928201651024822	0.8628505296303229	0.724398313468952	-0.2394864413597787	-0.1227864590704065	-0.2649699443959331	0.665214110370857	0.6652141103706873	0.07164397801476904	0.1744760767572062	0.2435302129034105	0.03838587328236091	0.335757338150588	0.1641047870819026	0.3916928978431728	-1.772172864185989	0.04074643257413592	-0.4153607327373902	0.7357667095588046	-1.98396396534977	-1.983963965349764	0.1970406758019627	0.0005432552532926745	-0.6386145195987533	-0.1123876312380998	-0.07232645082696111	-0.0250706012354807	0.009906083861853411	-0.3238220119372356	0.07497129532320937	-0.01496933805031778	0.1221785953239392	-33.28240272964388	-16.83625445159583	-5.147456861626454	-3.632885503799531	1.019822934120197	-644.4855827283731	57.65017004301463	0.08191694275519079	0.3129049056857206	-0.6932518143205957	-0.4293558897716658	0.08325131050065698	-0.3131799249274074	1.160324304469112	-0.6520050581651461	-0.6520050581685976	0.5450911549483939	0.01199699364123272	-0.3941859586458272	0.05713628665976213	1.643290414828519e-07	7.874836872491021e-08	-1.722415608844043e-06	7.590990614145658e-07	1.371463827636168e-07	1.75995888608301e-07	-1.192364784381301e-06
1.54	-0.1340808096421362	0.05093842260604756	0.8667320285239851	0.7066577065267866	-0.2390745088475021	-0.1269549444666718	-0.2575553903012673	0.6453447977404299	0.6453447977401642	0.07364107659832818	0.1744812668321315	0.2371254786783593	0.03726549060843342	0.3364249366314492	0.1671491837190016	0.3845284944300142	-1.775704378134634	0.04163607200616073	-0.4183064756147069	0.747031912459262	-1.989613550067056	-1.989613550067073	0.2023747309008718	0.0004890876609236681	-0.6422352568675577	-0.1116721631836276	-0.06607724997246581	-0.02728607886225825	0.009327025173010739	-0.3203685701380043	0.07860334337196094	-0.01596579617224071	0.116481797022173	-34.33681413827487	-15.54002062008758	-5.229681616570883	-3.760930161309546	0.5881241131628392	-641.0925553002919	57.83221106045848	0.05110308966814073	0.295625079287214	-0.7393680445237084	-0.2740040344767398	0.1016766479346982	-0.2667605094708629	1.092571336258887	-0.476301145783281	-0.4763011457832774	0.511770741689147	-0.03879435430199209	-0.3270436032038784	0.09572490600917907	1.72362409623145e-07	7.411338522035782e-08	-1.822954609194812e-06	7.642189423231578e-07	1.51424238594178e-07	1.682120647838e-07	-1.242664266372607e-06
1.55	-0.1307145016274248	0.05262441450667217	0.8705395954897142	0.6888892488671339	-0.2386538593776096	-0.131152111822779	-0.2500316632522613	0.6254276870953769	0.625427687095226	0.07569131968519115	0.1744859622728061	0.2306875023845302	0.03615268419566118	0.3367844385878636	0.17001689870865	0.376912802834986	-1.777728427730039	0.04248828511316013	-0.4210944381937822	0.7575858607942995	-1.993506380933885	-1.993506380933894	0.2076650057350495	0.0004463362271581676	-0.6452562956829305	-0.110873140529737	-0.05969334185685064	-0.0297087932003448	0.008706988109405232	-0.3171303150119603	0.08249530187818074	-0.01705665755273633	0.1106889618622206	-35.34970038362201	-14.1748362217771	-5.344314207322218	-3.879831322742271	0.1392971803550713	-637.8507579685341	58.00882686992942	0.02054672452305655	0.2775336244934791	-0.7834492884654541	-0.1277882342558405	0.07609667226188092	-0.2796971674385166	1.017661099739232	-0.3004814926485473	-0.3004814926472879	0.5360737317048748	0.01256929631145292	-0.2740379270313363	0.07416873537949663	1.809265438545155e-07	7.26838331504161e-08	-1.926371594452621e-06	7.78020802500441e-07	1.619830019719496e-07	1.719670073217433e-07	-1.296367767359798e-06
1.56	-0.1273461639979773	0.05433812134033077	0.874268849625198	0.6711083141490848	-0.238224867170612	-0.1353761354117376	-0.2424062258163837	0.6054807066545489	0.6054807066545224	0.07779414909588325	0.1744901471659982	0.2242224349212814	0.03504830356748792	0.3368308595800988	0.1726921703257994	0.3688659283810261	-1.778199789812783	0.04330461942732754	-0.4236777221853636	0.7673739898338797	-1.995587509221345	-1.995587509221345	0.2128919956661379	0.0003869781624040789	-0.6476534907513952	-0.1099870062638257	-0.05330943374123533	-0.03213150753841871	0.00808695104580886	-0.3138920598859156	0.08638726038440597	-0.01814751893321444	0.104896126702265	-36.31524738700244	-12.81887544955969	-5.457510537893376	-4.002447120084447	-0.3072161088819251	-634.7619608362309	58.25281466144894	-0.01151310316788832	0.2571364047876057	-0.8256046163100117	0.03653346805575688	0.09450088936828174	-0.2258247919720855	0.9394074771673541	-0.113960629909325	-0.1139606299093255	0.4991137610713416	-0.04211568049968542	-0.2022748538220113	0.1131472284133638	1.893115492430417e-07	7.065562116146148e-08	-2.027938873374885e-06	7.889977300975748e-07	1.725452914957447e-07	1.749378517748634e-07	-1.346449851880931e-06
1.57	-0.1239789540159067	0.0560775581311443	0.8779155446360405	0.6533305693478203	-0.237787936361835	-0.1396251110672534	-0.2346869118464717	0.5855221536213645	0.5855221536212042	0.07994890568334442	0.1744938357713312	0.2177365556525409	0.03395318492993386	0.3365597152761993	0.1751564973699059	0.3604082350646526	-1.777076801980195	0.04407386544729974	-0.4260786075756083	0.7763384746507241	-1.995801200083978	-1.995801200083984	0.2180467486763275	0.0003478040450846403	-0.6494125975849275	-0.1090223043728342	-0.04681209143368364	-0.03471674453635992	0.007420746589308452	-0.3108182691132886	0.09045643539667532	-0.01935413047614764	0.09902063944657416	-37.22761746260404	-11.42287275358377	-5.61879991852309	-4.11187378950832	-0.7380840810442956	-631.8400481678046	58.45958941763553	-0.04262197568502458	0.2353151238539423	-0.8655418827465164	0.1910439830859634	0.06689311105768579	-0.2411546848383141	0.8524195590221262	0.07317085090949443	0.07317085090853002	0.5214919450776601	0.01488294464274528	-0.1462207773843164	0.09004555135113114	1.974726435780126e-07	6.787908427374076e-08	-2.127194019377715e-06	7.96443491969522e-07	1.83111988702069e-07	1.769285736219545e-07	-1.392005165819492e-06
1.58	-0.1206159968532195	0.05784048504632477	0.88147572467503	0.6355722269333208	-0.2373435617623095	-0.1438968824311277	-0.226882462913377	0.5655711125126205	0.5655711125123355	0.08215477697572668	0.1744970728798926	0.2112363868796114	0.03286809608767152	0.3359802957049618	0.1773901951991859	0.3515629340104479	-1.774319312458582	0.04479337757710799	-0.4282368638573599	0.7844009824707561	-1.994085124332622	-1.994085124332635	0.2231149366499121	0.0002966788073980636	-0.650511391589077	-0.1079810472054782	-0.0403147491261326	-0.03730198153429135	0.006754542132817818	-0.3077444783406615	0.09452561040894911	-0.02056074201906747	0.09314515219088006	-38.08106663699603	-10.03715012666199	-5.778710080406947	-4.225152166393462	-1.16567244811074	-629.0896980621097	58.736778797315	-0.07316815663570704	0.2110105618224813	-0.9031261638762776	0.3634338058607914	0.08455411133547053	-0.1772989702735128	0.7590120778047463	0.2719926928882557	0.2719926928882482	0.4818007537503644	-0.04450590457308325	-0.07021228794523923	0.1284582836863184	2.062406086391816e-07	6.437623745400959e-08	-2.235725058275594e-06	8.015511372341278e-07	1.947073441214946e-07	1.780040283932839e-07	-1.439316814857258e-06
1.59	-0.117260437684082	0.05962455481904443	0.8849455952309292	0.6178497557741854	-0.2368923128653929	-0.1481891654486314	-0.2190020410797894	0.545647016528129	0.5456470165278956	0.08441093625239074	0.1744999471890524	0.204728564872162	0.03179373454378434	0.3350766955114847	0.1793806934240179	0.3423550104868518	-1.769889667689244	0.04544380026621475	-0.4301680719957925	0.7915147108438566	-1.990397296200734	-1.990397296200744	0.2281084091098713	0.0002723089327842706	-0.6509379614392752	-0.1068819068895681	-0.03362786882537633	-0.04010486593175185	0.006023661918386373	-0.3050432431541223	0.09907001067761104	-0.0219279164834421	0.08715360257340887	-38.86999584449773	-8.521151828845444	-5.991458810489402	-4.323248215052119	-1.654678353822514	-626.581858964097	58.9844239257169	-0.1071772733977077	0.1866526534637518	-0.9380149013610404	0.5255231873445171	0.05327084704872057	-0.1930235599098236	0.6622522063598716	0.4676500182870613	0.4676500182874138	0.5065298690501843	0.01786532406873036	-0.01157546254723214	0.1017586282760442	2.158321839716195e-07	5.988768429797856e-08	-2.356844808959609e-06	8.034856242459134e-07	2.076987356872719e-07	1.778373349903654e-07	-1.48901206152966e-06
